<svg width="240" height="240" viewBox="0 0 240 240" fill="none" xmlns="http://www.w3.org/2000/svg">
<g clip-path="url(#clip0)">
<path d="M0.907471 138.346V204.767C0.907471 205.49 1.29419 206.155 1.91622 206.517L59.4417 239.73C59.7553 239.909 60.104 240 60.4528 240C60.8015 240 61.1503 239.909 61.4639 239.73L118.987 206.519C119.611 206.158 119.998 205.49 119.998 204.767V138.346C119.998 137.985 119.902 137.639 119.728 137.335C119.553 137.032 119.303 136.777 118.989 136.597L61.4639 103.384C60.8372 103.023 60.0684 103.023 59.4417 103.384L1.91622 136.597C1.60544 136.779 1.35231 137.034 1.17793 137.335C1.00356 137.639 0.907471 137.985 0.907471 138.346Z" fill="#C30A5B"/>
<path d="M60.4528 103.114C60.1041 103.114 59.7553 103.205 59.4417 103.384L1.91626 136.597C1.29422 136.958 0.907501 137.623 0.907501 138.346V204.767C0.907501 205.49 1.29422 206.155 1.91626 206.517L59.4417 239.73C59.7553 239.909 60.1041 240 60.4528 240" fill="#FF318E"/>
<path d="M1.17796 137.335L59.4417 170.973C60.0684 171.334 60.8372 171.334 61.4639 170.973L119.728 137.335C119.553 137.032 119.303 136.777 118.989 136.597L61.4639 103.384C60.8372 103.023 60.0684 103.023 59.4417 103.384L1.91625 136.597C1.60547 136.779 1.35234 137.034 1.17796 137.335Z" fill="#FF73AF"/>
<path d="M120.002 138.346V204.767C120.002 205.49 120.389 206.155 121.011 206.517L178.536 239.73C178.85 239.909 179.198 240 179.547 240C179.896 240 180.245 239.909 180.558 239.73L238.081 206.519C238.706 206.158 239.092 205.49 239.092 204.767V138.346C239.092 137.985 238.996 137.639 238.822 137.335C238.648 137.032 238.397 136.777 238.084 136.597L180.558 103.384C179.932 103.023 179.163 103.023 178.536 103.384L121.011 136.597C120.7 136.779 120.447 137.034 120.272 137.335C120.098 137.639 120.002 137.985 120.002 138.346Z" fill="#004CBF"/>
<path d="M120.002 138.346V204.767C120.002 205.49 120.389 206.155 121.011 206.517L178.536 239.73C178.85 239.909 179.198 240 179.547 240V103.114C179.198 103.114 178.85 103.205 178.536 103.384L121.011 136.597C120.389 136.958 120.002 137.624 120.002 138.346Z" fill="#0082E0"/>
<path d="M120.272 137.335L178.536 170.973C179.163 171.334 179.932 171.334 180.558 170.973L238.822 137.335C238.648 137.032 238.397 136.777 238.084 136.597L180.558 103.384C179.932 103.023 179.163 103.023 178.536 103.384L121.011 136.597C120.699 136.779 120.447 137.034 120.272 137.335Z" fill="#608CFC"/>
<path d="M60.4547 35.2336V101.655C60.4547 102.377 60.8414 103.042 61.4634 103.404L118.989 136.617C119.302 136.796 119.651 136.887 120 136.887C120.349 136.887 120.697 136.796 121.011 136.617L178.534 103.406C179.159 103.045 179.545 102.377 179.545 101.655V35.2336C179.545 34.8722 179.449 34.5258 179.275 34.2225C179.1 33.9192 178.85 33.6637 178.537 33.4842L121.011 0.270933C120.384 -0.0904736 119.616 -0.0904736 118.989 0.270933L61.4634 33.4837C61.1526 33.6656 60.8995 33.9211 60.7251 34.222C60.5508 34.5258 60.4547 34.8717 60.4547 35.2336Z" fill="#0875B2"/>
<path d="M60.4547 35.2336V101.655C60.4547 102.377 60.8414 103.043 61.4634 103.404L118.989 136.617C119.302 136.796 119.651 136.887 120 136.887V0.000488281C119.651 0.000488281 119.302 0.0914258 118.989 0.270957L61.4634 33.4838C60.8414 33.8456 60.4547 34.5103 60.4547 35.2336Z" fill="#47A7DD"/>
<path d="M60.7252 34.222L118.989 67.8595C119.616 68.2209 120.384 68.2209 121.011 67.8595L179.275 34.222C179.1 33.9187 178.85 33.6633 178.537 33.4837L121.011 0.270933C120.384 -0.0904736 119.616 -0.0904736 118.989 0.270933L61.4634 33.4837C61.1522 33.6661 60.8995 33.9216 60.7252 34.222Z" fill="#D3CCFE"/>
<path d="M71.332 99.248C73.3327 99.248 74.9536 97.6266 74.9536 95.6264V95.3545C74.9536 93.3539 73.3322 91.733 71.332 91.733C69.3319 91.733 67.7105 93.3544 67.7105 95.3545V95.6264C67.7105 97.627 69.3314 99.248 71.332 99.248Z" fill="#D3CCFE"/>
<path d="M71.332 88.7329C73.3327 88.7329 74.9536 87.1115 74.9536 85.1114V84.839C74.9536 82.8384 73.3322 81.2175 71.332 81.2175C69.3319 81.2175 67.7105 82.8389 67.7105 84.839V85.1114C67.7105 87.1115 69.3314 88.7329 71.332 88.7329Z" fill="#D3CCFE"/>
<path d="M71.332 78.217C73.3327 78.217 74.9536 76.5956 74.9536 74.5955V74.3236C74.9536 72.323 73.3322 70.702 71.332 70.702C69.3319 70.702 67.7105 72.3234 67.7105 74.3236V74.5955C67.7105 76.5956 69.3314 78.217 71.332 78.217Z" fill="#D3CCFE"/>
</g>
<defs>
<clipPath id="clip0">
<rect width="240" height="240" fill="white" transform="matrix(-1 0 0 1 240 0)"/>
</clipPath>
</defs>
</svg>
